HIERARCHY
ROOT Hips
{
	OFFSET -0.179506 -22.333345 2.821913
	CHANNELS 6 Xposition Yposition Zposition Zrotation Yrotation Xrotation 
	JOINT LeftUpLeg
	{
		OFFSET 6.951974 -9.140623 -0.681533
		CHANNELS 3 Zrotation Yrotation Xrotation
		JOINT LeftLeg
		{
			OFFSET 3.427654 -37.519855 -0.449580
			CHANNELS 3 Zrotation Yrotation Xrotation
			JOINT LeftFoot
			{
				OFFSET -1.359570 -39.796059 -4.369333
				CHANNELS 3 Zrotation Yrotation Xrotation
				JOINT LeftToe
				{
					OFFSET 2.635814 -5.579078 11.928840
					CHANNELS 3 Zrotation Yrotation Xrotation
					End Site
					{
						OFFSET 0.000000 0.000000 0.000000
					}
				}
			}
		}
	}
	JOINT RightUpLeg
	{
		OFFSET -6.767048 -9.052170 -0.431982
		CHANNELS 3 Zrotation Yrotation Xrotation
		JOINT RightLeg
		{
			OFFSET -3.829005 -38.256897 -0.885003
			CHANNELS 3 Zrotation Yrotation Xrotation
			JOINT RightFoot
			{
				OFFSET 1.577377 -39.841461 -4.231180
				CHANNELS 3 Zrotation Yrotation Xrotation
				JOINT RightToe
				{
					OFFSET -2.537174 -4.814398 12.334795
					CHANNELS 3 Zrotation Yrotation Xrotation
					End Site
					{
						OFFSET 0.000000 0.000000 0.000000
					}
				}
			}
		}
	}
	JOINT Spine
	{
		OFFSET -0.253288 10.896323 -2.669631
		CHANNELS 3 Zrotation Yrotation Xrotation
		JOINT Spine1
		{
			OFFSET 0.548704 13.518043 0.109247
			CHANNELS 3 Zrotation Yrotation Xrotation
			JOINT Spine2
			{
				OFFSET 0.145701 5.292222 2.542457
				CHANNELS 3 Zrotation Yrotation Xrotation
				JOINT Neck
				{
					OFFSET -0.277840 21.387037 -4.285703
					CHANNELS 3 Zrotation Yrotation Xrotation
					JOINT Head
					{
						OFFSET 0.515184 6.496960 5.134897
						CHANNELS 3 Zrotation Yrotation Xrotation
						End Site
						{
							OFFSET 0.000000 0.000000 0.000000
						}
					}
				}
				JOINT LeftShoulder
				{
					OFFSET 7.884473 12.174932 -3.408961
					CHANNELS 3 Zrotation Yrotation Xrotation
					JOINT LeftArm
					{
						OFFSET 9.097692 3.046888 -0.886815
						CHANNELS 3 Zrotation Yrotation Xrotation
						JOINT LeftForeArm
						{
							OFFSET 25.961220 -1.277207 -2.745643
							CHANNELS 3 Zrotation Yrotation Xrotation
							JOINT LeftHand
							{
								OFFSET 24.923361 0.898606 -0.117091
								CHANNELS 3 Zrotation Yrotation Xrotation
								End Site
								{
									OFFSET 0.000000 0.000000 0.000000
								}
							}
						}
					}
				}
				JOINT RightShoulder
				{
					OFFSET -8.175920 11.883285 -3.861528
					CHANNELS 3 Zrotation Yrotation Xrotation
					JOINT RightArm
					{
						OFFSET -9.601238 3.255117 -0.914307
						CHANNELS 3 Zrotation Yrotation Xrotation
						JOINT RightForeArm
						{
							OFFSET -25.374195 -1.332924 -2.140099
							CHANNELS 3 Zrotation Yrotation Xrotation
							JOINT RightHand
							{
								OFFSET -25.529810 0.777228 -0.555919
								CHANNELS 3 Zrotation Yrotation Xrotation
								End Site
								{
									OFFSET 0.000000 0.000000 0.000000
								}
							}
						}
					}
				}
			}
		}
	}
}
MOTION
Frames: 7
Frame Time: 0.033333
-6.651935 26.605608 96.395943 174.804834 -0.012100 90.628232 -1.747186 0.682822 7.561188 2.899595 -10.061195 -9.859867 0.952724 7.909065 -2.169589 nan nan nan 0.632336 -0.339496 1.362900 -0.041142 3.753787 -1.194306 6.588285 -4.389659 -0.839527 nan nan nan -1.395531 1.537506 1.091082 1.995003 -2.716085 3.952241 0.978585 -0.116934 -4.731580 -2.214961 -1.388983 -2.912437 2.979533 -0.770875 -0.975537 -22.795088 -1.850009 0.938020 -57.554694 -2.698978 19.285705 -0.254287 -21.367795 12.583927 -8.139791 -9.915556 6.325997 25.362547 8.303886 2.411490 55.776298 6.154127 18.509231 -2.650271 18.329146 4.775745 9.508572 7.711991 1.615485 
-6.645377 26.607180 96.451233 174.850894 0.078355 90.514439 -1.717564 0.691140 7.584829 2.949555 -10.140861 -9.718613 0.970061 7.905132 -2.222640 nan nan nan 0.769448 -0.369262 1.417572 -0.043663 3.818825 -1.150472 6.322230 -4.396281 -0.956026 nan nan nan -1.263757 1.582368 1.093978 2.064461 -2.800671 4.372701 0.895139 -0.030319 -5.113141 -2.253155 -1.425929 -2.966837 2.997658 -0.784126 -0.834777 -23.335192 -2.093479 0.860210 -57.099506 -2.837641 19.257781 -0.398118 -20.473526 11.999270 -8.078761 -9.729197 6.700088 25.910488 8.556783 2.438048 55.185579 6.227099 18.395803 -2.584139 17.523279 4.288286 9.548862 7.734875 2.291704 
-6.627284 26.610998 96.487038 174.911521 0.129520 90.452941 -1.709872 0.724356 7.641215 3.009040 -10.149266 -9.718720 0.971959 7.889799 -2.244996 nan nan nan 0.871476 -0.399405 1.482255 -0.098925 3.821061 -1.161431 6.134039 -4.446141 -1.112710 nan nan nan -1.187316 1.600739 1.097901 2.110610 -2.861279 4.630517 0.844687 0.016741 -5.370396 -2.267356 -1.506780 -2.990880 3.017150 -0.842183 -0.761801 -23.680883 -2.232494 0.809574 -56.823778 -2.908139 19.241536 -0.499962 -19.888251 11.599402 -8.026116 -9.593754 6.923528 26.249485 8.702383 2.437353 54.816555 6.237850 18.307770 -2.564584 17.004646 3.918294 9.556438 7.752255 2.687597 
-6.606781 26.661732 96.510262 174.957705 0.174401 90.393479 -1.711077 0.848401 7.954457 3.129206 -9.982527 -10.096329 0.913702 7.783430 -2.184243 nan nan nan 0.947794 -0.433587 1.639873 -0.140738 3.804412 -1.245257 6.054752 -4.454424 -1.163465 nan nan nan -1.119205 1.581069 0.987334 2.148308 -2.892487 4.879870 0.807265 0.037925 -5.533164 -2.270322 -1.507716 -2.939880 2.970303 -0.902710 -0.750572 -23.914762 -2.285174 0.794302 -56.596348 -2.942612 19.180078 -0.624198 -19.526655 11.386712 -8.010626 -9.522648 7.129762 26.488803 8.764798 2.433404 54.534729 6.254712 18.230445 -2.512480 16.613818 3.656986 9.562493 7.761018 3.019079 
-6.627341 26.627111 96.529251 174.999077 0.271466 90.366488 -1.645631 0.715919 7.775476 3.133984 -10.152250 -9.870071 0.953728 7.815924 -2.202581 nan nan nan 1.016120 -0.424559 1.621449 -0.091504 3.902413 -1.166603 5.948036 -4.444625 -1.100591 nan nan nan -1.059519 1.652299 1.064320 2.227516 -2.887863 4.907640 0.841751 0.017772 -5.605449 -2.270573 -1.582696 -3.093730 2.983782 -0.887610 -0.596380 -24.160443 -2.359408 0.764100 -56.459854 -3.025875 19.178749 -0.585709 -19.382105 11.178637 -7.872311 -9.457702 7.189535 26.697341 8.707066 2.384374 54.220876 6.227716 18.138125 -2.625967 16.465850 3.445018 9.505559 7.755946 3.250322 
-6.916571 26.980894 96.173317 177.615659 0.266809 91.202813 -2.254379 -0.953958 6.668796 4.579715 -11.481671 -9.542863 1.108268 6.988050 -1.948137 nan nan nan 0.657964 -1.119053 2.252308 0.165624 3.402772 -3.070951 6.248732 -5.353228 -0.948652 nan nan nan -0.541453 1.974015 0.511763 2.519628 -3.682251 4.267518 0.968939 -1.133023 -4.786660 -3.188372 -2.114381 -4.069819 2.424193 -1.836422 -2.412729 -24.065671 -1.203128 0.028640 -58.051314 -2.619935 18.729752 0.649655 -23.050397 11.862992 -9.169671 -8.880905 7.885199 25.650245 3.667985 -0.926657 54.785910 3.980298 16.731243 -3.455692 22.546365 7.082691 11.237465 6.469123 6.790139 
-6.872064 26.957861 96.093628 177.711113 0.345548 91.281937 -2.115210 -1.052581 6.532671 4.534225 -11.426298 -9.514655 0.955806 6.949000 -1.743707 nan nan nan 0.804277 -1.034108 2.178586 0.034138 3.296480 -3.108825 6.295375 -5.453433 -0.798302 nan nan nan -0.337133 1.786756 0.707593 2.365095 -3.694005 3.456042 0.952069 -1.097040 -4.092169 -3.169529 -2.062498 -4.008390 2.476903 -1.812369 -2.679786 -23.439056 -1.107534 0.105880 -58.784414 -2.635903 18.686322 0.981946 -23.320878 12.270620 -9.363095 -9.008789 7.290233 24.883977 3.698314 -0.913923 55.557693 4.038693 16.883995 -3.523082 22.879640 7.803115 11.284551 6.366680 6.121931 
